<svg xmlns="http://www.w3.org/2000/svg" width="232" height="240" style=""><rect id="backgroundrect" width="100%" height="100%" x="0" y="0" fill="none" stroke="none" style="" class=""/>
  
<g class="currentLayer" style=""><title>Layer 1</title><g fill="none" fill-rule="evenodd" style="" id="svg_1" class="selected">
    <g fill="#F3603C" style="" stroke-width="0" id="svg_2">
      <path d="M41.49389554837148,153.196773011015 c22.906536737356443,0 41.479001829348306,19.04906403581202 41.479001829348306,42.55134945294367 C82.97289737771979,219.23551416409595 64.4004322857279,238.29947191690235 41.49389554837148,238.29947191690235 C18.572465094020657,238.29947191690235 2.0287850011069253e-9,219.23551416409595 2.0287850011069253e-9,195.74812246395868 c0,-23.502285417131645 18.572465091991862,-42.55134945294367 41.493895546342685,-42.55134945294367 zM41.49389554837148,6.822332532241404e-9 C64.4004322857279,6.822332532241404e-9 82.95800366072541,19.06395775962875 82.95800366072541,42.551349459766016 c0,23.502285417131645 -18.572465091991862,42.55134945294367 -41.479001829348306,42.55134945294367 C18.572465094020657,85.10269891270968 2.0287850011069253e-9,66.05363487689766 2.0287850011069253e-9,42.551349459766016 C2.0287850011069253e-9,19.06395775962875 18.572465094020657,6.822332532241404e-9 41.49389554837148,6.822332532241404e-9 zm149.35419401964268,0 C213.76952002236493,6.822332532241404e-9 232.34198511435682,19.06395775962875 232.34198511435682,42.551349459766016 c0,23.502285417131645 -18.572465091991862,42.55134945294367 -41.493895546342685,42.55134945294367 c-22.906536737356443,0 -41.479001829348306,-19.04906403581202 -41.479001829348306,-42.55134945294367 C149.36908773866583,19.06395775962875 167.94155283065766,6.822332532241404e-9 190.84808956801413,6.822332532241404e-9 z" stroke-width="0" id="svg_3"/>
      <ellipse cx="4.310821489698759" cy="5.566056455220617" opacity=".5" rx="2.7860000133514404" ry="2.8570001125335693" transform="matrix(14.893716994380002,0,0,14.893716994380002,126.64393621885999,114.546736128) " stroke-width="0" id="svg_4"/>
    </g>
  </g></g></svg>